# xmcd
# 
# Track frame offsets:
#     150
#     24262
#     47962
#     76173
#     100925
#     127658
#     162710
#     185998
#     209570
#     232042
#     261984
#     287856
#     312146
#     334545
# 
# Disc length: 4749
# 
# Revision: 1
# Processed by: cddbd v1.5.2PL0 Copyright (c) Steve Scherf et al.
# Submitted via: BonkEnc v1.0.8
# 
DISCID=ca128b0e
DTITLE=Various Artist - Collected
DYEAR=2006
DGENRE=Trip-Hop
TTITLE0=Massive Attack feat. Shara Nelson - SAFE FROM HARM
TTITLE1=Massive Attack feat. Tricky - KARMACOMA
TTITLE2=Massive Attack feat. Horace Andy - ANGEL
TTITLE3=Massive Attack feat. Elizabeth Fraser - TEARDROP
TTITLE4=Massive Attack - INTERIA CREEPS
TTITLE5=Massive Attack feat. Tracey Thorn - PROTECTION
TTITLE6=Massive Attack - BUTTERFLY CAUGHT
TTITLE7=Massive Attack feat. Shara Nelson - UNFINISHED SYMPATHY
TTITLE8=Massive Attack - RISINGSON
TTITLE9=Massive Attack feat. Sinead O'Connor - WHAT YOUR SOUL SINGS
TTITLE10=Massive Attack - FUTURE PROOF
TTITLE11=Massive Attack feat. Horace Andy - FIVE MAN ARMY
TTITLE12=Massive Attack feat. Nicolette - SLY
TTITLE13=Massive Attack feat. Terry Callier - LIVE WITH ME
EXTD=
EXTT0=
EXTT1=
EXTT2=
EXTT3=
EXTT4=
EXTT5=
EXTT6=
EXTT7=
EXTT8=
EXTT9=
EXTT10=
EXTT11=
EXTT12=
EXTT13=
PLAYORDER=
